# xmcd
#
# Track frame offsets:
#  182
#  12472
#  23330
#  35480
#  47245
#  52970
#  64575
#  76485
#  86210
#  95385
#  108840
#  123060
#  132485
#  140837
#  161897
#  171780
#  181685
#  194602
#  208997
#  225730
#
# Disc length: 3145 seconds
#
# Revision: 0
# Processed by: cddbd v1.4b42PL1 Copyright (c) Steve Scherf et al.
# Submitted via: AltoMP3_Maker 3.0
#
DISCID=140c4714
DTITLE=Elvis - Elvis Blues The Ultimate Collection
DYEAR=1900
DGENRE=
TTITLE0=A Mess of Blues
TTITLE1=So Glad Your Mine
TTITLE2=Like A Baby
TTITLE3=Give Me The Right
TTITLE4=Hot Dog
TTITLE5=Try To Get to You
TTITLE6=One Night of Sin
TTITLE7=Tell Me Why
TTITLE8=New Orleans
TTITLE9=I Feel So Bad
TTITLE10=After Loving You
TTITLE11=Beach Boys Blues
TTITLE12=When It Rains it Really Pours
TTITLE13=Stranger In MY Own Home TOWN
TTITLE14=Lawdy Miss Clawdy
TTITLE15=It FEELS so Right 
TTITLE16=Down In The Ally
TTITLE17=Clean Up Your OWN Back Yard
TTITLE18=Reconsider Baby
TTITLE19=Mean woman Blues
EXTD=
EXTT0=
EXTT1=
EXTT2=
EXTT3=
EXTT4=
EXTT5=
EXTT6=
EXTT7=
EXTT8=
EXTT9=
EXTT10=
EXTT11=
EXTT12=
EXTT13=
EXTT14=
EXTT15=
EXTT16=
EXTT17=
EXTT18=
EXTT19=
PLAYORDER=
